<mxfile host="6d4518fa-5bc0-440b-9266-57ebbc82486c" modified="2020-08-03T04:57:02.006Z" agent="5.0 (Macintosh; Intel Mac OS X 10_15_6) AppleWebKit/537.36 (KHTML, like Gecko) Code/1.47.3 Chrome/78.0.3904.130 Electron/7.3.2 Safari/537.36" etag="xVTuXub72Pq1EAVBy-8c" version="13.1.3">
    <diagram id="6hGFLwfOUW9BJ-s0fimq" name="新城大境">
        <mxGraphModel dx="1155" dy="1107" grid="0" gridSize="10" guides="0" tooltips="1" connect="1" arrows="1" fold="1" page="1" pageScale="1" pageWidth="827" pageHeight="1169" math="0" shadow="0">
            <root>
                <mxCell id="0"/>
                <mxCell id="1" parent="0"/>
                <mxCell id="9" value="" style="whiteSpace=wrap;html=1;strokeColor=#F0020A;strokeWidth=15;" vertex="1" parent="1">
                    <mxGeometry x="60" y="60" width="295" height="270" as="geometry"/>
                </mxCell>
                <mxCell id="10" value="" style="whiteSpace=wrap;html=1;strokeColor=#F0020A;strokeWidth=15;" vertex="1" parent="1">
                    <mxGeometry x="665" y="60" width="215" height="270" as="geometry"/>
                </mxCell>
                <mxCell id="11" value="" style="whiteSpace=wrap;html=1;strokeColor=#F0020A;strokeWidth=15;" vertex="1" parent="1">
                    <mxGeometry x="530" y="330" width="350" height="570" as="geometry"/>
                </mxCell>
                <mxCell id="12" value="" style="whiteSpace=wrap;html=1;strokeColor=#F0020A;strokeWidth=15;" vertex="1" parent="1">
                    <mxGeometry x="230" y="510" width="300" height="390" as="geometry"/>
                </mxCell>
                <mxCell id="14" value="" style="rounded=0;whiteSpace=wrap;html=1;strokeColor=#F0020A;strokeWidth=15;" vertex="1" parent="1">
                    <mxGeometry x="230" y="330" width="300" height="180" as="geometry"/>
                </mxCell>
                <mxCell id="15" value="" style="whiteSpace=wrap;html=1;strokeColor=#F0020A;strokeWidth=15;" vertex="1" parent="1">
                    <mxGeometry x="355" y="130" width="140" height="200" as="geometry"/>
                </mxCell>
                <mxCell id="17" value="" style="rounded=0;whiteSpace=wrap;html=1;strokeColor=#F0020A;strokeWidth=15;" vertex="1" parent="1">
                    <mxGeometry x="495" y="130" width="170" height="200" as="geometry"/>
                </mxCell>
                <mxCell id="18" value="" style="rounded=0;whiteSpace=wrap;html=1;strokeWidth=15;strokeColor=#F0020A;" vertex="1" parent="1">
                    <mxGeometry x="615" y="900" width="265" height="140" as="geometry"/>
                </mxCell>
                <mxCell id="19" value="" style="rounded=0;whiteSpace=wrap;html=1;strokeWidth=15;strokeColor=#F0020A;" vertex="1" parent="1">
                    <mxGeometry x="430" y="900" width="185" height="60" as="geometry"/>
                </mxCell>
            </root>
        </mxGraphModel>
    </diagram>
</mxfile>